<?xml version="1.0" encoding="UTF-8" standalone="no"?>
<svg
   xmlns:dc="http://purl.org/dc/elements/1.1/"
   xmlns:cc="http://creativecommons.org/ns#"
   xmlns:rdf="http://www.w3.org/1999/02/22-rdf-syntax-ns#"
   xmlns:svg="http://www.w3.org/2000/svg"
   xmlns="http://www.w3.org/2000/svg"
   xmlns:sodipodi="http://sodipodi.sourceforge.net/DTD/sodipodi-0.dtd"
   xmlns:inkscape="http://www.inkscape.org/namespaces/inkscape"
   version="1.1"
   id="svg2"
   xml:space="preserve"
   width="666.25336"
   height="666.25336"
   viewBox="0 0 666.25336 666.25336"
   sodipodi:docname="road-sea-background-publicdomainvectors.org.eps"><metadata
     id="metadata8"><rdf:RDF><cc:Work
         rdf:about=""><dc:format>image/svg+xml</dc:format><dc:type
           rdf:resource="http://purl.org/dc/dcmitype/StillImage" /></cc:Work></rdf:RDF></metadata><defs
     id="defs6" /><sodipodi:namedview
     pagecolor="#ffffff"
     bordercolor="#666666"
     borderopacity="1"
     objecttolerance="10"
     gridtolerance="10"
     guidetolerance="10"
     inkscape:pageopacity="0"
     inkscape:pageshadow="2"
     inkscape:window-width="640"
     inkscape:window-height="480"
     id="namedview4" /><g
     id="g10"
     inkscape:groupmode="layer"
     inkscape:label="ink_ext_XXXXXX"
     transform="matrix(1.3333333,0,0,-1.3333333,0,666.25333)"><g
       id="g12"
       transform="scale(0.1)"><path
         d="M 0,0 H 4996.9 V 4996.9 H 0 V 0"
         style="fill:#c7ece1;fill-opacity:1;fill-rule:evenodd;stroke:none"
         id="path14" /><path
         d="M 4996.9,3388.29 V 1154.89 L 0,1765.77 v 1604.29 c 60.3281,71.98 141.762,124.43 233.93,149.12 122.867,32.93 253.879,13.6 362.008,-53.39 134.644,-83.44 297.789,-107.5 450.792,-66.5 153,40.99 282.25,143.41 357.15,282.98 103.77,193.38 305.45,314.05 524.92,314.05 219.47,0 421.15,-120.67 524.92,-314.05 101.96,-190.05 277.98,-329.5 486.31,-385.33 208.33,-55.82 430.48,-23.05 613.82,90.56 188.71,116.92 407.71,175.61 629.61,168.7 279.5,-8.7 554.65,-65.75 813.44,-167.91"
         style="fill:#ebf8f5;fill-opacity:1;fill-rule:evenodd;stroke:none"
         id="path16" /><path
         d="M 0,0 H 4996.9 V 2628.66 H 0 V 0"
         style="fill:#6accaa;fill-opacity:1;fill-rule:evenodd;stroke:none"
         id="path18" /><path
         d="m 1243.83,3120.08 c 187.34,0 339.19,-335.86 339.19,-750.18 0,-414.3 -151.85,-750.17 -339.19,-750.17 -187.34,0 -339.189,335.87 -339.189,750.17 0,414.32 151.849,750.18 339.189,750.18 z m 691.13,-621.63 c 66.26,0 119.98,-104.21 119.98,-232.78 0,-128.56 -53.72,-232.78 -119.98,-232.78 -66.27,0 -119.99,104.22 -119.99,232.78 0,128.57 53.72,232.78 119.99,232.78 z m 1336.27,218.79 c 130.09,0 235.54,-178.08 235.54,-397.77 0,-219.66 -105.45,-397.74 -235.54,-397.74 -51.34,0 -98.83,27.75 -137.53,74.83 -42.77,-222.2 -137.97,-376.83 -248.56,-376.83 -150.55,0 -272.63,286.68 -272.63,640.31 0,353.63 122.08,640.31 272.63,640.31 94.97,0 178.57,-114.05 227.39,-286.98 41.85,64.51 97.56,103.87 158.7,103.87 z m 1333.14,252.29 c 162.93,0 295.01,-286.68 295.01,-640.3 0,-353.64 -132.08,-640.32 -295.01,-640.32 -162.93,0 -295.02,286.68 -295.02,640.32 0,353.62 132.09,640.3 295.02,640.3 z M 595.27,2676.54 c 106.191,0 192.289,-164.15 192.289,-366.64 0,-202.49 -86.098,-366.64 -192.289,-366.64 -106.2,0 -192.297,164.15 -192.297,366.64 0,202.49 86.097,366.64 192.297,366.64 v 0"
         style="fill:#c4e341;fill-opacity:1;fill-rule:evenodd;stroke:none"
         id="path20" /><path
         d="m 1243.83,2802.69 c 187.34,0 339.19,-264.82 339.19,-591.49 0,-326.67 -151.85,-591.47 -339.19,-591.47 -187.34,0 -339.189,264.8 -339.189,591.47 0,326.67 151.849,591.49 339.189,591.49 z m 691.13,-490.13 c 66.26,0 119.98,-82.18 119.98,-183.54 0,-101.35 -53.72,-183.53 -119.98,-183.53 -66.27,0 -119.99,82.18 -119.99,183.53 0,101.36 53.72,183.54 119.99,183.54 z m 1336.27,172.5 c 130.09,0 235.54,-140.42 235.54,-313.62 0,-173.19 -105.45,-313.61 -235.54,-313.61 -51.34,0 -98.83,21.9 -137.53,59.03 -42.77,-175.22 -137.97,-297.13 -248.56,-297.13 -150.55,0 -272.63,226.02 -272.63,504.85 0,278.82 122.08,504.85 272.63,504.85 94.97,0 178.57,-89.91 227.39,-226.27 41.85,50.86 97.56,81.9 158.7,81.9 z m 1333.14,198.92 c 162.93,0 295.01,-226.03 295.01,-504.86 0,-278.83 -132.08,-504.85 -295.01,-504.85 -162.93,0 -295.02,226.02 -295.02,504.85 0,278.83 132.09,504.86 295.02,504.86 z m -4009.1,-231 c 106.191,0 192.289,-129.42 192.289,-289.09 0,-159.65 -86.098,-289.07 -192.289,-289.07 -106.2,0 -192.297,129.42 -192.297,289.07 0,159.67 86.097,289.09 192.297,289.09 v 0"
         style="fill:#b1d920;fill-opacity:1;fill-rule:evenodd;stroke:none"
         id="path22" /><path
         d="M 4996.9,2345.01 V 0 H 0 v 2184.87 l 124.34,52.05 c 358.867,150.23 763.004,150.23 1121.89,0 334.93,-140.21 712.12,-140.21 1047.08,0 410.7,171.93 873.21,171.93 1283.93,0 313.01,-131.02 665.49,-131.02 978.51,0 141.87,59.38 290.76,95.4 441.15,108.09"
         style="fill:#d8eb67;fill-opacity:1;fill-rule:evenodd;stroke:none"
         id="path24" /><path
         d="M 4996.9,2123.25 V 0 H 0 v 2150.64 c 176.27,73.26 397.996,101.86 613.23,77.76 113.942,-12.77 205.317,-61.99 235.34,-126.78 30.043,-64.78 -6.504,-133.81 -94.136,-177.8 -55.172,-27.69 -86.86,-67.84 -86.86,-110.09 0,-42.24 31.688,-82.4 86.86,-110.08 209.597,-105.2 521.226,-105.2 730.826,0 203.01,101.89 393.38,211.91 569.68,329.24 217.63,144.83 565.66,198.72 879.41,136.19 169.35,-33.75 269.88,-134.39 235.79,-236.04 -33.23,-99.06 64.74,-197.12 229.79,-230.03 183.52,-36.58 385.45,-25.36 553.57,30.73 168.11,56.1 285.88,151.56 322.84,261.72 23.96,71.42 120.59,127.27 244.16,141.11 163.24,18.28 325.94,12.52 476.4,-13.32"
         style="fill:#c4e341;fill-opacity:1;fill-rule:evenodd;stroke:none"
         id="path26" /><path
         d="M 0,0 H 4996.9 V 795.512 H 0 V 0"
         style="fill:#9ac221;fill-opacity:1;fill-rule:evenodd;stroke:none"
         id="path28" /><path
         d="M 4996.9,329.852 V 0 H 0 v 625.922 c 95.7813,10.5 196.563,16.047 299.625,16.047 380.668,0 730.505,-75.707 910.495,-197.047 176.87,-119.262 482.15,-206.762 843.49,-241.774 361.38,-35.039 746.69,-14.476 1064.7,56.801 327.32,73.371 707.18,110.199 1092.07,105.86 265.58,-2.989 528.89,-15.09 786.52,-35.957"
         style="fill:#7fa429;fill-opacity:1;fill-rule:evenodd;stroke:none"
         id="path30" /><path
         d="M 0,725.859 H 4996.9 V 1418.57 H 0 V 725.859"
         style="fill:#f9cc78;fill-opacity:1;fill-rule:evenodd;stroke:none"
         id="path32" /><path
         d="M 0,830.109 H 4996.9 V 1383.53 H 0 V 830.109"
         style="fill:#938b80;fill-opacity:1;fill-rule:evenodd;stroke:none"
         id="path34" /><path
         d="M 0,830.109 H 4996.9 V 1314.33 H 0 V 830.109"
         style="fill:#605c56;fill-opacity:1;fill-rule:evenodd;stroke:none"
         id="path36" /><path
         d="m 0,795.512 h 4996.9 v 69.199 H 0 v -69.199"
         style="fill:#413b36;fill-opacity:1;fill-rule:evenodd;stroke:none"
         id="path38" /><path
         d="m 37.707,1154.89 h 429.297 l 41.766,-48.07 H 79.4688 l -41.7618,48.07"
         style="fill:#fbc907;fill-opacity:1;fill-rule:evenodd;stroke:none"
         id="path40" /><path
         d="m 904.641,1154.89 c 143.089,0 286.189,0 429.299,0 13.91,-16.02 27.84,-32.05 41.75,-48.07 -143.09,0 -286.19,0 -429.299,0 -13.907,16.02 -27.84,32.05 -41.75,48.07"
         style="fill:#fbc907;fill-opacity:1;fill-rule:evenodd;stroke:none"
         id="path42" /><path
         d="m 1771.57,1154.89 c 143.1,0 286.19,0 429.29,0 13.93,-16.02 27.84,-32.05 41.78,-48.07 -143.11,0 -286.21,0 -429.31,0 -13.93,16.02 -27.84,32.05 -41.76,48.07"
         style="fill:#fbc907;fill-opacity:1;fill-rule:evenodd;stroke:none"
         id="path44" /><path
         d="m 2638.51,1154.89 c 143.1,0 286.18,0 429.29,0 13.92,-16.02 27.84,-32.05 41.76,-48.07 -143.1,0 -286.2,0 -429.3,0 -13.91,16.02 -27.84,32.05 -41.75,48.07"
         style="fill:#fbc907;fill-opacity:1;fill-rule:evenodd;stroke:none"
         id="path46" /><path
         d="m 3505.43,1154.89 c 143.1,0 286.2,0 429.3,0 13.92,-16.02 27.84,-32.05 41.76,-48.07 -143.1,0 -286.2,0 -429.29,0 -13.93,16.02 -27.84,32.05 -41.77,48.07"
         style="fill:#fbc907;fill-opacity:1;fill-rule:evenodd;stroke:none"
         id="path48" /><path
         d="m 4372.36,1154.89 h 429.3 l 41.77,-48.07 h -429.31 l -41.76,48.07"
         style="fill:#fbc907;fill-opacity:1;fill-rule:evenodd;stroke:none"
         id="path50" /><path
         d="M 4356.13,4327.71 H 2061.14 l 264.49,28.49 c 100.82,10.85 192.37,63.72 252.18,145.59 47.45,64.96 123.07,103.37 203.51,103.37 80.46,0 156.06,-38.41 203.52,-103.37 42.22,-57.8 109.5,-91.97 181.07,-91.97 71.58,0 138.86,34.17 181.08,91.97 45.07,61.7 116.88,98.17 193.29,98.17 76.4,0 148.21,-36.47 193.28,-98.17 76.43,-104.64 215.43,-141.89 333.95,-89.47 104.86,46.37 224.43,46.37 329.32,0 81.06,-35.86 165.12,-64.14 251.1,-84.61 h -291.8"
         style="fill:#ffffff;fill-opacity:1;fill-rule:evenodd;stroke:none"
         id="path52" /><path
         d="M 2012.37,3584.91 H 552.035 l 168.301,18.13 c 64.137,6.91 122.406,40.55 160.465,92.64 30.199,41.34 78.304,65.78 129.489,65.78 51.19,0 99.3,-24.44 129.49,-65.78 26.88,-36.78 69.67,-58.52 115.23,-58.52 45.55,0 88.36,21.74 115.22,58.52 28.67,39.27 74.36,62.47 122.99,62.47 48.62,0 94.31,-23.2 122.99,-62.47 48.64,-66.58 137.08,-90.28 212.49,-56.93 66.73,29.5 142.82,29.5 209.55,0 51.58,-22.81 105.07,-40.81 159.77,-53.84 h -185.65"
         style="fill:#ffffff;fill-opacity:1;fill-rule:evenodd;stroke:none"
         id="path54" /><path
         d="m 1608.01,114.191 c 0,5.457 -0.78,10.18 -2.4,14.028 -1.58,3.922 -3.78,6.941 -6.63,9.07 -2.83,2.07 -5.94,3.133 -9.39,3.133 -5.45,0 -10.06,-2.301 -13.81,-6.762 -3.75,-4.512 -5.62,-11.09 -5.62,-19.82 0,-8.231 1.87,-14.6291 5.56,-19.1408 3.75,-4.5781 8.38,-6.8906 13.87,-6.8906 3.28,0 6.35,1 9.16,3.0234 2.76,1.9883 5.02,4.9688 6.72,8.918 1.71,4.02 2.54,8.809 2.54,14.441 z m -38.77,30.09 v -2.492 c 3.71,4.762 7.56,8.332 11.56,10.531 4.02,2.262 8.59,3.399 13.67,3.399 6.08,0 11.68,-1.649 16.81,-4.93 5.11,-3.277 9.15,-8.047 12.14,-14.367 2.97,-6.32 4.43,-13.762 4.43,-22.391 0,-6.332 -0.83,-12.242 -2.55,-17.4919 -1.71,-5.3282 -4.07,-9.8203 -7.06,-13.4102 -3,-3.6094 -6.56,-6.3984 -10.61,-8.3086 -4.1,-1.9805 -8.51,-2.9297 -13.16,-2.9297 -5.68,0 -10.43,1.1797 -14.26,3.5508 -3.88,2.3594 -7.51,5.8203 -10.97,10.418 V 54.8789 c 0,-9.0898 -3.18,-13.6094 -9.5,-13.6094 -3.72,0 -6.2,1.1524 -7.38,3.4922 -1.22,2.3477 -1.81,5.7696 -1.81,10.25 v 89.1293 c 0,3.929 0.79,6.879 2.45,8.808 1.67,1.922 3.9,2.922 6.74,2.922 2.8,0 5.08,-1 6.84,-3.012 1.76,-2.007 2.66,-4.871 2.66,-8.578"
         style="fill:#ffffff;fill-opacity:1;fill-rule:nonzero;stroke:none"
         id="path56" /><path
         d="m 1695.16,83.5703 v 2.6016 c -2.39,-3.1133 -4.87,-5.7227 -7.48,-7.8321 -2.61,-2.1601 -5.46,-3.7187 -8.54,-4.7382 -3.12,-1.0235 -6.64,-1.5508 -10.6,-1.5508 -4.76,0 -9.05,1.0508 -12.86,3.0898 -3.8,2.0703 -6.73,4.918 -8.79,8.5391 -2.5,4.4023 -3.7,10.7109 -3.7,18.8903 v 40.93 c 0,4.102 0.89,7.211 2.69,9.242 1.79,2.047 4.14,3.067 7.08,3.067 3.01,0 5.41,-1.02 7.25,-3.11 1.84,-2.07 2.75,-5.16 2.75,-9.199 v -33.078 c 0,-4.762 0.38,-8.781 1.13,-12.0118 0.81,-3.2618 2.2,-5.8086 4.22,-7.6797 1.96,-1.8086 4.7,-2.7305 8.13,-2.7305 3.36,0 6.49,1.0391 9.42,3.1016 2.97,2.0468 5.13,4.7382 6.46,8.0703 1.12,2.9301 1.66,9.3281 1.66,19.2071 V 143.5 c 0,4.039 0.92,7.129 2.78,9.199 1.81,2.09 4.18,3.11 7.15,3.11 2.95,0 5.31,-1.02 7.1,-3.067 1.76,-2.031 2.64,-5.14 2.64,-9.242 V 83.6797 c 0,-3.918 -0.82,-6.8789 -2.54,-8.8281 -1.7,-1.9922 -3.9,-2.9532 -6.62,-2.9532 -2.69,0 -4.92,1.0508 -6.7,3.043 -1.75,2.0703 -2.63,4.8984 -2.63,8.6289"
         style="fill:#ffffff;fill-opacity:1;fill-rule:nonzero;stroke:none"
         id="path58" /><path
         d="m 1752.54,113.371 c 0,-8.211 1.79,-14.4999 5.37,-18.9296 3.61,-4.3906 8.34,-6.6328 14.2,-6.6328 4.98,0 9.24,2.2812 12.86,6.7812 3.62,4.5196 5.42,10.9492 5.42,19.3902 0,5.489 -0.75,10.161 -2.26,14.079 -1.51,3.953 -3.65,6.992 -6.37,9.121 -2.8,2.14 -5.97,3.242 -9.65,3.242 -3.81,0 -7.11,-1.102 -10.08,-3.242 -2.97,-2.129 -5.26,-5.25 -6.97,-9.321 -1.69,-4.019 -2.52,-8.839 -2.52,-14.488 z m -0.94,61.379 v -31.57 c 3.67,4.082 7.49,7.129 11.35,9.32 3.87,2.141 8.67,3.219 14.35,3.219 6.59,0 12.34,-1.649 17.29,-4.867 4.94,-3.313 8.81,-7.993 11.52,-14.161 2.76,-6.171 4.1,-13.5 4.1,-21.961 0,-6.269 -0.75,-12 -2.25,-17.2495 -1.53,-5.1914 -3.72,-9.6992 -6.63,-13.5703 -2.93,-3.8086 -6.45,-6.7383 -10.56,-8.9102 -4.15,-2.0508 -8.7,-3.1094 -13.67,-3.1094 -3.02,0 -5.91,0.3907 -8.6,1.1289 -2.68,0.7618 -4.98,1.75 -6.82,3.0196 -1.91,1.1718 -3.52,2.4922 -4.85,3.7695 -1.32,1.3203 -3.06,3.2812 -5.23,5.8906 v -2.0195 c 0,-3.8906 -0.92,-6.8203 -2.7,-8.8281 -1.77,-1.9922 -4.08,-2.961 -6.8,-2.961 -2.82,0 -5.04,0.9688 -6.73,2.961 -1.65,2.0468 -2.48,4.957 -2.48,8.8281 v 90.1723 c 0,4.148 0.8,7.32 2.44,9.449 1.61,2.16 3.85,3.219 6.77,3.219 3.03,0 5.38,-1.008 7,-3.071 1.66,-2.019 2.5,-4.91 2.5,-8.699"
         style="fill:#ffffff;fill-opacity:1;fill-rule:nonzero;stroke:none"
         id="path60" /><path
         d="M 1824.18,84.4492 V 173.98 c 0,4.149 0.88,7.25 2.62,9.379 1.79,2.102 4.16,3.161 7.16,3.161 2.99,0 5.4,-1.02 7.24,-3.129 1.81,-2.082 2.76,-5.243 2.76,-9.411 V 84.4492 c 0,-4.1875 -0.95,-7.3398 -2.81,-9.4492 -1.84,-2.0508 -4.26,-3.1094 -7.19,-3.1094 -2.91,0 -5.23,1.0899 -7.06,3.25 -1.81,2.1797 -2.72,5.2578 -2.72,9.3086"
         style="fill:#ffffff;fill-opacity:1;fill-rule:nonzero;stroke:none"
         id="path62" /><path
         d="M 1884.16,144.078 V 84.4492 c 0,-4.1601 -0.97,-7.2773 -2.8,-9.3984 -1.91,-2.0703 -4.31,-3.1602 -7.18,-3.1602 -2.91,0 -5.27,1.0899 -7.07,3.2383 -1.8,2.1914 -2.73,5.2695 -2.73,9.3203 V 143.5 c 0,4.039 0.93,7.129 2.73,9.199 1.8,2.09 4.16,3.11 7.07,3.11 2.87,0 5.27,-1.02 7.18,-3.11 1.83,-2.07 2.8,-4.937 2.8,-8.621 z m -9.78,21.352 c -2.76,0 -5.09,0.879 -7.09,2.691 -1.91,1.75 -2.91,4.27 -2.91,7.508 0,2.91 1,5.293 3.01,7.211 2,1.898 4.33,2.789 6.99,2.789 2.55,0 4.84,-0.828 6.81,-2.527 1.97,-1.723 2.97,-4.243 2.97,-7.473 0,-3.207 -0.98,-5.688 -2.91,-7.457 -1.93,-1.781 -4.2,-2.742 -6.87,-2.742"
         style="fill:#ffffff;fill-opacity:1;fill-rule:nonzero;stroke:none"
         id="path64" /><path
         d="m 1975.45,97.4492 c 0,-2.5586 -0.72,-5.3203 -2.19,-8.2383 -1.49,-2.9218 -3.74,-5.6914 -6.77,-8.3515 -2.99,-2.6406 -6.8,-4.7696 -11.39,-6.3711 -4.59,-1.6485 -9.77,-2.4375 -15.5,-2.4375 -12.24,0 -21.77,3.7305 -28.63,11.1484 -6.85,7.4492 -10.29,17.3908 -10.29,29.9028 0,8.457 1.57,15.968 4.69,22.457 3.14,6.461 7.72,11.531 13.63,15.07 5.93,3.57 13.06,5.351 21.29,5.351 5.14,0 9.85,-0.8 14.12,-2.351 4.27,-1.57 7.89,-3.598 10.86,-6.039 2.97,-2.481 5.24,-5.121 6.82,-7.899 1.58,-2.793 2.34,-5.41 2.34,-7.832 0,-2.449 -0.89,-4.539 -2.63,-6.257 -1.78,-1.731 -3.89,-2.582 -6.41,-2.582 -1.66,0 -3.01,0.48 -4.12,1.359 -1.06,0.851 -2.29,2.23 -3.65,4.242 -2.41,3.82 -4.94,6.707 -7.57,8.668 -2.64,1.891 -5.99,2.883 -10.01,2.883 -5.88,0 -10.59,-2.43 -14.15,-7.184 -3.59,-4.797 -5.35,-11.297 -5.35,-19.566 0,-3.863 0.46,-7.473 1.38,-10.703 0.91,-3.2698 2.24,-6.0276 3.97,-8.3284 1.75,-2.3008 3.83,-4.0312 6.3,-5.2109 2.46,-1.2109 5.17,-1.7891 8.1,-1.7891 3.99,0 7.37,0.9414 10.2,2.8594 2.83,1.9414 5.33,4.8711 7.5,8.75 1.21,2.379 2.51,4.172 3.91,5.5 1.42,1.32 3.14,1.949 5.16,1.949 2.41,0 4.41,-0.937 6.03,-2.859 1.56,-1.949 2.36,-3.9689 2.36,-6.1408"
         style="fill:#ffffff;fill-opacity:1;fill-rule:nonzero;stroke:none"
         id="path66" /><path
         d="m 2008.04,113.98 c 0,-5.601 0.83,-10.339 2.49,-14.2886 1.68,-3.9531 3.92,-6.8711 6.82,-8.8594 2.92,-2.0234 6.09,-3.0234 9.49,-3.0234 3.48,0 6.66,0.9727 9.53,2.8398 2.89,1.9024 5.15,4.8125 6.89,8.7227 1.72,3.8789 2.57,8.7769 2.57,14.6089 0,5.52 -0.85,10.219 -2.57,14.192 -1.74,3.969 -4.04,6.988 -6.95,9.117 -2.93,2.07 -6.11,3.133 -9.59,3.133 -3.61,0 -6.85,-1.102 -9.71,-3.242 -2.83,-2.129 -5.07,-5.239 -6.63,-9.239 -1.55,-4.019 -2.34,-8.632 -2.34,-13.961 z m 38.87,-30.3003 v 2.0195 c -2.65,-3.1679 -5.27,-5.75 -7.89,-7.7109 -2.54,-2.0078 -5.36,-3.5274 -8.38,-4.5586 -3,-1.0078 -6.3,-1.5391 -9.87,-1.5391 -4.73,0 -9.14,1.0586 -13.15,3.1094 -4.03,2.1719 -7.51,5.1211 -10.46,8.9922 -2.94,3.8789 -5.18,8.4375 -6.71,13.707 -1.54,5.2228 -2.29,10.8908 -2.29,17.0308 0,12.872 3.03,22.981 9.07,30.18 6.05,7.211 13.98,10.809 23.82,10.809 5.7,0 10.51,-1.039 14.42,-3.117 3.91,-2 7.73,-5.153 11.44,-9.422 v 30.492 c 0,4.238 0.8,7.437 2.44,9.598 1.61,2.179 3.89,3.25 6.9,3.25 2.99,0 5.29,-0.989 6.93,-2.961 1.61,-1.989 2.45,-4.938 2.45,-8.809 V 83.6797 c 0,-3.918 -0.88,-6.8789 -2.63,-8.8281 -1.75,-1.9922 -3.98,-2.961 -6.75,-2.961 -2.68,0 -4.94,1.0078 -6.71,3.0508 -1.75,2.0274 -2.63,4.918 -2.63,8.7383"
         style="fill:#ffffff;fill-opacity:1;fill-rule:nonzero;stroke:none"
         id="path68" /><path
         d="m 2139.67,113.809 c 0,8.39 -1.81,14.961 -5.33,19.652 -3.56,4.66 -8.34,7.027 -14.32,7.027 -3.89,0 -7.28,-1.058 -10.23,-3.148 -2.93,-2.11 -5.2,-5.199 -6.8,-9.281 -1.58,-4.047 -2.39,-8.778 -2.39,-14.25 0,-5.399 0.81,-10.098 2.35,-14.1176 1.56,-4.043 3.82,-7.1211 6.76,-9.2695 2.91,-2.1406 6.37,-3.1914 10.31,-3.1914 5.98,0 10.76,2.3398 14.32,7.0508 3.52,4.6992 5.33,11.2307 5.33,19.5277 z m 19.84,0 c 0,-6.11 -0.93,-11.797 -2.75,-17.0199 -1.84,-5.1485 -4.49,-9.6172 -7.95,-13.3594 -3.51,-3.7383 -7.66,-6.5313 -12.48,-8.5781 -4.83,-1.9922 -10.3,-2.961 -16.31,-2.961 -5.98,0 -11.38,0.9688 -16.14,3.0196 -4.79,2 -8.95,4.8984 -12.45,8.6601 -3.49,3.7617 -6.14,8.1602 -7.97,13.2813 -1.81,5.1484 -2.71,10.7694 -2.71,17.0004 0,6.25 0.93,11.957 2.75,17.128 1.83,5.219 4.45,9.629 7.89,13.34 3.43,3.668 7.57,6.5 12.49,8.481 4.89,2.008 10.24,3.008 16.14,3.008 6,0 11.44,-1 16.31,-3.039 4.86,-2 9.04,-4.899 12.52,-8.629 3.49,-3.719 6.13,-8.18 7.91,-13.332 1.85,-5.129 2.75,-10.797 2.75,-17"
         style="fill:#ffffff;fill-opacity:1;fill-rule:nonzero;stroke:none"
         id="path70" /><path
         d="m 2243.05,130.859 c -1.49,-3.488 -2.19,-9.648 -2.19,-18.519 V 84.9102 c 0,-4.3086 -0.93,-7.5899 -2.83,-9.7696 -1.88,-2.1601 -4.4,-3.25 -7.48,-3.25 -2.97,0 -5.39,1.0899 -7.24,3.25 -1.86,2.1797 -2.77,5.461 -2.77,9.7696 V 117.84 c 0,5.18 -0.2,9.199 -0.54,12.109 -0.34,2.84 -1.25,5.223 -2.75,7.063 -1.47,1.859 -3.85,2.777 -7.07,2.777 -6.47,0 -10.73,-2.328 -12.8,-7 -2.07,-4.617 -3.04,-11.277 -3.04,-19.969 V 84.9102 c 0,-4.3008 -0.96,-7.5508 -2.8,-9.6914 -1.87,-2.2383 -4.32,-3.3282 -7.33,-3.3282 -3.02,0 -5.5,1.0899 -7.39,3.3282 -1.93,2.1406 -2.84,5.3906 -2.84,9.6796 V 143.98 c 0,3.891 0.82,6.84 2.52,8.848 1.74,2.004 4,3.043 6.82,3.043 2.7,0 4.96,-0.941 6.76,-2.832 1.8,-1.891 2.71,-4.48 2.71,-7.82 v -1.969 c 3.42,4.289 7.1,7.449 11,9.449 3.91,2.012 8.3,3.02 13.05,3.02 4.96,0 9.21,-1.039 12.79,-3.117 3.59,-2.043 6.52,-5.18 8.83,-9.352 3.34,4.199 6.91,7.379 10.74,9.41 3.82,2.051 8.04,3.059 12.66,3.059 5.44,0 10.09,-1.078 13.98,-3.34 3.93,-2.207 6.84,-5.379 8.78,-9.52 1.7,-3.73 2.53,-9.597 2.53,-17.629 V 84.9102 c 0,-4.3086 -0.94,-7.5899 -2.79,-9.7696 -1.93,-2.1601 -4.39,-3.25 -7.48,-3.25 -3.01,0 -5.45,1.0899 -7.35,3.3282 -1.93,2.1406 -2.89,5.3906 -2.89,9.6914 v 34.7378 c 0,4.442 -0.18,7.993 -0.53,10.661 -0.37,2.711 -1.34,4.921 -2.96,6.742 -1.58,1.82 -4.01,2.738 -7.21,2.738 -2.61,0 -5.1,-0.82 -7.4,-2.398 -2.39,-1.641 -4.16,-3.809 -5.49,-6.532 v 0"
         style="fill:#ffffff;fill-opacity:1;fill-rule:nonzero;stroke:none"
         id="path72" /><path
         d="m 2355.06,113.422 c -2.91,-1.133 -7.13,-2.281 -12.66,-3.543 -5.53,-1.231 -9.36,-2.129 -11.49,-2.719 -2.13,-0.601 -4.16,-1.719 -6.07,-3.39 -1.95,-1.739 -2.93,-4.0786 -2.93,-7.1098 0,-3.1485 1.16,-5.7891 3.4,-7.9883 2.29,-2.211 5.27,-3.293 8.94,-3.293 3.9,0 7.54,0.9102 10.83,2.7031 3.31,1.7696 5.76,4.1094 7.27,6.9063 1.8,3.1406 2.71,8.2617 2.71,15.4917 z m 1.29,-29.9025 c -4.8,-3.8906 -9.42,-6.789 -13.88,-8.6992 -4.45,-1.9805 -9.49,-2.9297 -15.02,-2.9297 -5.11,0 -9.52,1.0586 -13.39,3.1094 -3.86,2.1094 -6.79,4.9492 -8.88,8.5703 -2.05,3.5703 -3.12,7.418 -3.12,11.6211 0,5.6486 1.76,10.4496 5.18,14.4376 3.39,3.953 8.1,6.641 14.09,8.012 1.26,0.3 4.39,0.949 9.33,2.007 5.03,1.09 9.25,2.043 12.86,2.922 3.51,0.871 7.39,1.942 11.54,3.192 -0.26,5.468 -1.3,9.468 -3.15,12.058 -1.88,2.52 -5.76,3.77 -11.57,3.77 -5.05,0 -8.81,-0.711 -11.38,-2.18 -2.51,-1.441 -4.7,-3.66 -6.49,-6.621 -1.84,-2.898 -3.09,-4.84 -3.84,-5.758 -0.77,-0.961 -2.38,-1.383 -4.8,-1.383 -2.26,0 -4.16,0.743 -5.76,2.204 -1.64,1.507 -2.44,3.378 -2.44,5.73 0,3.629 1.23,7.18 3.68,10.559 2.47,3.449 6.32,6.257 11.52,8.519 5.21,2.211 11.73,3.32 19.51,3.32 8.67,0 15.52,-1.109 20.53,-3.238 4.96,-2.113 8.44,-5.48 10.51,-10.164 2.07,-4.609 3.08,-10.777 3.08,-18.437 0,-4.832 0,-8.969 -0.03,-12.332 -0.04,-3.399 -0.05,-7.149 -0.1,-11.278 0,-3.8708 0.61,-7.9294 1.85,-12.1208 1.2,-4.211 1.82,-6.9297 1.82,-8.1211 0,-2.1289 -0.97,-4.0586 -2.86,-5.8008 -1.87,-1.7266 -4.06,-2.5977 -6.46,-2.5977 -2.06,0 -4.02,0.9688 -6.03,2.961 -1.98,2.0078 -4.08,4.9101 -6.3,8.6679"
         style="fill:#ffffff;fill-opacity:1;fill-rule:nonzero;stroke:none"
         id="path74" /><path
         d="M 2414.34,144.078 V 84.4492 c 0,-4.1601 -0.95,-7.2773 -2.81,-9.3984 -1.88,-2.0703 -4.25,-3.1602 -7.16,-3.1602 -2.9,0 -5.28,1.0899 -7.07,3.2383 -1.83,2.1914 -2.74,5.2695 -2.74,9.3203 V 143.5 c 0,4.039 0.91,7.129 2.74,9.199 1.79,2.09 4.17,3.11 7.07,3.11 2.91,0 5.28,-1.02 7.16,-3.11 1.86,-2.07 2.81,-4.937 2.81,-8.621 z m -9.78,21.352 c -2.72,0 -5.07,0.879 -7.03,2.691 -1.95,1.75 -2.97,4.27 -2.97,7.508 0,2.91 1.03,5.293 3.04,7.211 1.98,1.898 4.33,2.789 6.96,2.789 2.57,0 4.86,-0.828 6.85,-2.527 1.95,-1.723 2.93,-4.243 2.93,-7.473 0,-3.207 -0.95,-5.688 -2.89,-7.457 -1.94,-1.781 -4.23,-2.742 -6.89,-2.742"
         style="fill:#ffffff;fill-opacity:1;fill-rule:nonzero;stroke:none"
         id="path76" /><path
         d="m 2452.77,144.391 v -2.469 c 3.46,4.769 7.26,8.289 11.36,10.519 4.14,2.239 8.89,3.368 14.28,3.368 5.18,0 9.87,-1.168 14,-3.571 4.06,-2.359 7.15,-5.687 9.16,-10 1.32,-2.547 2.14,-5.297 2.55,-8.207 0.36,-2.902 0.59,-6.633 0.59,-11.179 V 84.4492 c 0,-4.1601 -0.94,-7.2773 -2.74,-9.3984 -1.81,-2.0703 -4.18,-3.1602 -7.06,-3.1602 -2.94,0 -5.34,1.0899 -7.11,3.25 -1.86,2.1797 -2.8,5.2578 -2.8,9.3086 v 34.3788 c 0,6.844 -0.88,12.031 -2.69,15.621 -1.84,3.61 -5.46,5.43 -10.87,5.43 -3.52,0 -6.73,-1.098 -9.62,-3.309 -2.89,-2.172 -5.02,-5.191 -6.37,-9.031 -0.97,-3.078 -1.48,-8.801 -1.48,-17.269 V 84.4492 c 0,-4.1875 -0.9,-7.3398 -2.78,-9.4492 -1.86,-2.0508 -4.27,-3.1094 -7.2,-3.1094 -2.83,0 -5.19,1.0899 -7.02,3.2383 -1.86,2.1914 -2.76,5.2695 -2.76,9.3203 v 59.6288 c 0,3.961 0.81,6.863 2.48,8.813 1.6,1.941 3.91,2.918 6.74,2.918 1.71,0 3.3,-0.457 4.68,-1.289 1.44,-0.84 2.52,-2.168 3.37,-3.821 0.82,-1.75 1.29,-3.84 1.29,-6.308"
         style="fill:#ffffff;fill-opacity:1;fill-rule:nonzero;stroke:none"
         id="path78" /><path
         d="m 2536.45,142.969 15.97,-46.8792 17.25,48.9222 c 1.37,3.937 2.69,6.687 4.01,8.34 1.34,1.628 3.28,2.457 5.93,2.457 2.51,0 4.64,-0.879 6.44,-2.668 1.73,-1.75 2.62,-3.762 2.62,-6.141 0,-0.891 -0.17,-1.93 -0.49,-3.109 -0.28,-1.243 -0.64,-2.379 -1.07,-3.461 -0.42,-1.02 -0.85,-2.25 -1.42,-3.59 l -18.97,-49.1486 c -0.54,-1.4023 -1.24,-3.2226 -2.06,-5.3906 -0.86,-2.1524 -1.82,-3.9688 -2.83,-5.5703 -1.06,-1.5117 -2.33,-2.6797 -3.83,-3.5508 -1.55,-0.8594 -3.4,-1.2891 -5.58,-1.2891 -2.8,0 -5.02,0.6602 -6.71,1.9805 -1.67,1.3477 -2.9,2.7891 -3.69,4.4102 -0.78,1.5585 -2.15,4.7187 -4.01,9.4101 l -18.86,48.6096 c -0.43,1.187 -0.9,2.41 -1.37,3.621 -0.44,1.207 -0.79,2.41 -1.13,3.699 -0.3,1.289 -0.48,2.367 -0.48,3.238 0,1.442 0.41,2.832 1.25,4.211 0.82,1.399 1.96,2.551 3.4,3.41 1.47,0.872 3.01,1.329 4.73,1.329 3.26,0 5.52,-0.977 6.76,-2.981 1.24,-1.949 2.63,-5.238 4.14,-9.859"
         style="fill:#ffffff;fill-opacity:1;fill-rule:nonzero;stroke:none"
         id="path80" /><path
         d="m 2617.34,120.551 h 35.85 c -0.46,7.027 -2.26,12.308 -5.46,15.801 -3.17,3.48 -7.34,5.238 -12.52,5.238 -4.89,0 -8.95,-1.77 -12.09,-5.32 -3.17,-3.54 -5.06,-8.79 -5.78,-15.719 z m 38.7,-11.75 h -38.7 c 0.01,-4.711 0.96,-8.8322 2.69,-12.4299 1.8,-3.5508 4.12,-6.25 7.05,-8.0898 2.92,-1.8204 6.15,-2.6993 9.69,-2.6993 2.35,0 4.54,0.2774 6.46,0.8477 1.96,0.6016 3.87,1.5 5.73,2.7187 1.8,1.2422 3.47,2.5313 5.03,4 1.53,1.4024 3.6,3.293 6.02,5.7227 1.03,0.9492 2.48,1.3709 4.35,1.3709 2.06,0 3.68,-0.5506 4.94,-1.742 1.26,-1.168 1.85,-2.7891 1.85,-4.8984 0,-1.8711 -0.68,-4.0508 -2.1,-6.5703 -1.38,-2.461 -3.45,-4.8711 -6.34,-7.1915 -2.83,-2.2695 -6.37,-4.1484 -10.65,-5.6992 -4.25,-1.5 -9.14,-2.25 -14.75,-2.25 -12.68,0 -22.57,3.8008 -29.6,11.3203 -7.04,7.6094 -10.55,17.8401 -10.55,30.7691 0,6.168 0.9,11.782 2.6,16.989 1.73,5.23 4.25,9.691 7.59,13.422 3.34,3.75 7.43,6.629 12.32,8.589 4.9,2 10.28,3 16.25,3 7.67,0 14.32,-1.699 19.85,-5.128 5.55,-3.403 9.68,-7.762 12.43,-13.141 2.76,-5.43 4.13,-10.902 4.13,-16.539 0,-5.152 -1.38,-8.524 -4.26,-10.051 -2.87,-1.562 -6.86,-2.32 -12.03,-2.32"
         style="fill:#ffffff;fill-opacity:1;fill-rule:nonzero;stroke:none"
         id="path82" /><path
         d="m 2759.96,97.4492 c 0,-2.5586 -0.73,-5.3203 -2.24,-8.2383 -1.48,-2.9218 -3.68,-5.6914 -6.72,-8.3515 -3.01,-2.6406 -6.85,-4.7696 -11.45,-6.3711 -4.56,-1.6485 -9.76,-2.4375 -15.46,-2.4375 -12.25,0 -21.8,3.7305 -28.64,11.1484 -6.84,7.4492 -10.29,17.3908 -10.29,29.9028 0,8.457 1.56,15.968 4.72,22.457 3.15,6.461 7.65,11.531 13.61,15.07 5.91,3.57 13.04,5.351 21.31,5.351 5.12,0 9.8,-0.8 14.11,-2.351 4.26,-1.57 7.86,-3.598 10.87,-6.039 2.96,-2.481 5.21,-5.121 6.8,-7.899 1.55,-2.793 2.35,-5.41 2.35,-7.832 0,-2.449 -0.86,-4.539 -2.69,-6.257 -1.74,-1.731 -3.87,-2.582 -6.38,-2.582 -1.65,0 -3,0.48 -4.07,1.359 -1.11,0.851 -2.32,2.23 -3.69,4.242 -2.41,3.82 -4.92,6.707 -7.56,8.668 -2.64,1.891 -5.98,2.883 -10.05,2.883 -5.81,0 -10.53,-2.43 -14.1,-7.184 -3.6,-4.797 -5.38,-11.297 -5.38,-19.566 0,-3.863 0.49,-7.473 1.37,-10.703 0.92,-3.2698 2.26,-6.0276 4.01,-8.3284 1.73,-2.3008 3.85,-4.0312 6.31,-5.2109 2.42,-1.2109 5.14,-1.7891 8.1,-1.7891 3.96,0 7.37,0.9414 10.19,2.8594 2.81,1.9414 5.33,4.8711 7.51,8.75 1.21,2.379 2.49,4.172 3.91,5.5 1.38,1.32 3.08,1.949 5.14,1.949 2.39,0 4.43,-0.937 5.96,-2.859 1.63,-1.949 2.45,-3.9689 2.45,-6.1408"
         style="fill:#ffffff;fill-opacity:1;fill-rule:nonzero;stroke:none"
         id="path84" /><path
         d="m 2778.32,154.07 h 2.18 v 12.41 c 0,3.309 0.09,5.942 0.26,7.821 0.17,1.89 0.61,3.48 1.42,4.871 0.75,1.387 1.86,2.547 3.34,3.449 1.43,0.859 3.04,1.277 4.83,1.277 2.5,0 4.79,-0.968 6.8,-2.918 1.33,-1.332 2.21,-2.91 2.57,-4.789 0.37,-1.89 0.53,-4.613 0.53,-8.07 V 154.07 h 7.27 c 2.8,0 4.95,-0.699 6.42,-2.09 1.5,-1.378 2.21,-3.14 2.21,-5.32 0,-2.769 -1.04,-4.738 -3.17,-5.828 -2.09,-1.082 -5.1,-1.652 -9.02,-1.652 h -3.71 v -38.02 c 0,-3.2303 0.12,-5.7186 0.33,-7.4803 0.25,-1.75 0.87,-3.1602 1.78,-4.2188 0.91,-1.082 2.45,-1.6523 4.59,-1.6523 1.16,0 2.72,0.2109 4.72,0.6602 1.93,0.4218 3.49,0.6328 4.62,0.6328 1.58,0 3.07,-0.6914 4.33,-1.961 1.25,-1.3789 1.9,-3 1.9,-4.9804 0,-3.3086 -1.7,-5.8594 -5.21,-7.6289 -3.51,-1.7696 -8.49,-2.6407 -14.99,-2.6407 -6.19,0 -10.88,1.0899 -14.07,3.25 -3.17,2.1797 -5.29,5.1485 -6.25,9.0313 -1.01,3.8281 -1.5,8.9375 -1.5,15.3398 V 139.18 h -2.63 c -2.8,0 -4.98,0.699 -6.49,2.129 -1.51,1.41 -2.24,3.171 -2.24,5.351 0,2.18 0.77,3.942 2.32,5.32 1.6,1.391 3.86,2.09 6.86,2.09"
         style="fill:#ffffff;fill-opacity:1;fill-rule:nonzero;stroke:none"
         id="path86" /><path
         d="m 2883.93,113.809 c 0,8.39 -1.8,14.961 -5.33,19.652 -3.58,4.66 -8.31,7.027 -14.31,7.027 -3.88,0 -7.28,-1.058 -10.21,-3.148 -2.97,-2.11 -5.23,-5.199 -6.81,-9.281 -1.6,-4.047 -2.41,-8.778 -2.41,-14.25 0,-5.399 0.81,-10.098 2.38,-14.1176 1.56,-4.043 3.8,-7.1211 6.72,-9.2695 2.91,-2.1406 6.35,-3.1914 10.33,-3.1914 6,0 10.73,2.3398 14.31,7.0508 3.53,4.6992 5.33,11.2307 5.33,19.5277 z m 19.85,0 c 0,-6.11 -0.91,-11.797 -2.77,-17.0199 -1.82,-5.1485 -4.5,-9.6172 -7.95,-13.3594 -3.49,-3.7383 -7.65,-6.5313 -12.46,-8.5781 -4.85,-1.9922 -10.25,-2.961 -16.31,-2.961 -6.02,0 -11.41,0.9688 -16.17,3.0196 -4.77,2 -8.93,4.8984 -12.43,8.6601 -3.48,3.7617 -6.15,8.1602 -7.94,13.2813 -1.8,5.1484 -2.69,10.7694 -2.69,17.0004 0,6.25 0.89,11.957 2.69,17.128 1.88,5.219 4.48,9.629 7.9,13.34 3.46,3.668 7.6,6.5 12.47,8.481 4.93,2.008 10.3,3.008 16.17,3.008 6,0 11.4,-1 16.31,-3.039 4.87,-2 9.03,-4.899 12.52,-8.629 3.44,-3.719 6.14,-8.18 7.94,-13.332 1.81,-5.129 2.72,-10.797 2.72,-17"
         style="fill:#ffffff;fill-opacity:1;fill-rule:nonzero;stroke:none"
         id="path88" /><path
         d="M 2939.01,101.641 V 84.4492 c 0,-4.1875 -0.94,-7.3398 -2.83,-9.4492 -1.89,-2.0508 -4.28,-3.1094 -7.2,-3.1094 -2.81,0 -5.18,1.0899 -7,3.1602 -1.83,2.1211 -2.73,5.2383 -2.73,9.3984 v 57.4488 c 0,9.293 3.19,13.911 9.62,13.911 3.25,0 5.63,-1.098 7.11,-3.239 1.42,-2.172 2.18,-5.379 2.38,-9.601 2.35,4.222 4.8,7.429 7.29,9.601 2.49,2.141 5.8,3.239 9.93,3.239 4.19,0 8.2,-1.098 12.13,-3.239 3.89,-2.172 5.87,-5.058 5.87,-8.621 0,-2.519 -0.86,-4.629 -2.52,-6.238 -1.65,-1.641 -3.45,-2.481 -5.41,-2.481 -0.71,0 -2.47,0.469 -5.24,1.43 -2.79,0.918 -5.24,1.399 -7.38,1.399 -2.87,0 -5.24,-0.77 -7.05,-2.399 -1.85,-1.609 -3.28,-3.93 -4.29,-7.051 -1.02,-3.16 -1.75,-6.859 -2.11,-11.199 -0.37,-4.269 -0.57,-9.519 -0.57,-15.769"
         style="fill:#ffffff;fill-opacity:1;fill-rule:nonzero;stroke:none"
         id="path90" /><path
         d="m 3044.37,98.8594 c 0,-5.711 -1.33,-10.5781 -4.02,-14.6406 -2.66,-4.0704 -6.58,-7.1094 -11.78,-9.2305 -5.21,-2.0391 -11.5,-3.0977 -18.98,-3.0977 -7.04,0 -13.16,1.1289 -18.25,3.4102 -5.07,2.2695 -8.82,5.0781 -11.21,8.4805 -2.44,3.3906 -3.68,6.8085 -3.68,10.2109 0,2.2695 0.79,4.2187 2.37,5.8281 1.53,1.6487 3.5,2.4177 5.84,2.4177 2.09,0 3.7,-0.539 4.8,-1.566 1.12,-1.1212 2.15,-2.5704 3.2,-4.4923 2.02,-3.6914 4.43,-6.4297 7.3,-8.25 2.78,-1.8399 6.64,-2.7305 11.56,-2.7305 3.94,0 7.19,0.9219 9.74,2.7696 2.52,1.8398 3.83,3.9296 3.83,6.3125 0,3.6484 -1.34,6.3087 -3.95,7.9487 -2.67,1.7 -6.98,3.282 -13.02,4.782 -6.81,1.769 -12.37,3.629 -16.65,5.547 -4.27,1.953 -7.73,4.531 -10.27,7.703 -2.56,3.129 -3.86,7.058 -3.86,11.699 0,4.16 1.2,8.07 3.57,11.719 2.35,3.691 5.89,6.621 10.49,8.82 4.61,2.211 10.16,3.309 16.72,3.309 5.09,0 9.69,-0.567 13.79,-1.668 4.08,-1.102 7.53,-2.61 10.22,-4.45 2.72,-1.882 4.82,-3.941 6.24,-6.191 1.44,-2.301 2.15,-4.52 2.15,-6.66 0,-2.391 -0.74,-4.281 -2.3,-5.86 -1.53,-1.449 -3.71,-2.218 -6.46,-2.218 -2.06,0 -3.78,0.597 -5.23,1.84 -1.39,1.187 -3.05,2.98 -4.87,5.378 -1.5,2.02 -3.25,3.649 -5.3,4.852 -2.03,1.188 -4.79,1.816 -8.24,1.816 -3.59,0 -6.59,-0.777 -8.91,-2.398 -2.38,-1.57 -3.58,-3.559 -3.58,-5.93 0,-2.179 0.88,-3.949 2.59,-5.34 1.77,-1.378 4.09,-2.531 7.05,-3.441 2.97,-0.91 7.02,-2.039 12.19,-3.34 6.14,-1.551 11.14,-3.41 15.04,-5.59 3.89,-2.148 6.83,-4.711 8.83,-7.66 2.04,-2.98 3.04,-6.34 3.04,-10.0896"
         style="fill:#ffffff;fill-opacity:1;fill-rule:nonzero;stroke:none"
         id="path92" /><path
         d="m 3066.83,71.8906 c -3,0 -5.59,0.9688 -7.74,3.0196 -2.21,2 -3.28,4.8515 -3.28,8.4414 0,3.0781 1.02,5.7187 3.08,7.9492 2.08,2.2109 4.65,3.289 7.7,3.289 3.03,0 5.64,-1.0781 7.74,-3.2812 2.17,-2.1602 3.26,-4.8477 3.26,-7.957 0,-3.5625 -1.09,-6.3828 -3.26,-8.4102 -2.1,-2.043 -4.61,-3.0508 -7.5,-3.0508"
         style="fill:#ffffff;fill-opacity:1;fill-rule:nonzero;stroke:none"
         id="path94" /><path
         d="m 3154.29,113.809 c 0,8.39 -1.79,14.961 -5.33,19.652 -3.56,4.66 -8.32,7.027 -14.29,7.027 -3.88,0 -7.25,-1.058 -10.21,-3.148 -2.96,-2.11 -5.22,-5.199 -6.8,-9.281 -1.58,-4.047 -2.39,-8.778 -2.39,-14.25 0,-5.399 0.77,-10.098 2.33,-14.1176 1.61,-4.043 3.84,-7.1211 6.77,-9.2695 2.91,-2.1406 6.33,-3.1914 10.3,-3.1914 5.97,0 10.73,2.3398 14.29,7.0508 3.54,4.6992 5.33,11.2307 5.33,19.5277 z m 19.87,0 c 0,-6.11 -0.91,-11.797 -2.77,-17.0199 -1.85,-5.1485 -4.48,-9.6172 -7.96,-13.3594 -3.51,-3.7383 -7.61,-6.5313 -12.46,-8.5781 -4.82,-1.9922 -10.25,-2.961 -16.3,-2.961 -5.99,0 -11.37,0.9688 -16.15,3.0196 -4.79,2 -8.91,4.8984 -12.41,8.6601 -3.55,3.7617 -6.19,8.1602 -8.02,13.2813 -1.77,5.1484 -2.68,10.7694 -2.68,17.0004 0,6.25 0.91,11.957 2.75,17.128 1.87,5.219 4.46,9.629 7.88,13.34 3.42,3.668 7.58,6.5 12.48,8.481 4.87,2.008 10.22,3.008 16.15,3.008 5.97,0 11.41,-1 16.3,-3.039 4.9,-2 9.06,-4.899 12.55,-8.629 3.45,-3.719 6.09,-8.18 7.93,-13.332 1.8,-5.129 2.71,-10.797 2.71,-17"
         style="fill:#ffffff;fill-opacity:1;fill-rule:nonzero;stroke:none"
         id="path96" /><path
         d="M 3209.38,101.641 V 84.4492 c 0,-4.1875 -0.93,-7.3398 -2.82,-9.4492 -1.85,-2.0508 -4.27,-3.1094 -7.15,-3.1094 -2.89,0 -5.2,1.0899 -7.05,3.1602 -1.85,2.1211 -2.76,5.2383 -2.76,9.3984 v 57.4488 c 0,9.293 3.25,13.911 9.65,13.911 3.29,0 5.63,-1.098 7.08,-3.239 1.42,-2.172 2.27,-5.379 2.44,-9.601 2.32,4.222 4.75,7.429 7.24,9.601 2.49,2.141 5.82,3.239 9.94,3.239 4.22,0 8.25,-1.098 12.12,-3.239 3.91,-2.172 5.89,-5.058 5.89,-8.621 0,-2.519 -0.84,-4.629 -2.5,-6.238 -1.68,-1.641 -3.45,-2.481 -5.42,-2.481 -0.71,0 -2.45,0.469 -5.22,1.43 -2.79,0.918 -5.24,1.399 -7.39,1.399 -2.88,0 -5.23,-0.77 -7.11,-2.399 -1.81,-1.609 -3.24,-3.93 -4.27,-7.051 -0.99,-3.16 -1.7,-6.859 -2.07,-11.199 -0.39,-4.269 -0.6,-9.519 -0.6,-15.769"
         style="fill:#ffffff;fill-opacity:1;fill-rule:nonzero;stroke:none"
         id="path98" /><path
         d="m 3266.49,114.52 c 0,-8.348 1.76,-14.688 5.28,-18.9887 3.47,-4.2618 8.03,-6.4297 13.55,-6.4297 3.26,0 6.41,0.957 9.32,2.7968 2.93,1.8399 5.3,4.6016 7.15,8.3206 1.85,3.711 2.74,8.191 2.74,13.472 0,8.418 -1.79,14.957 -5.33,19.641 -3.54,4.727 -8.21,7.09 -14,7.09 -5.64,0 -10.18,-2.301 -13.57,-6.762 -3.43,-4.5 -5.14,-10.871 -5.14,-19.14 z m 57.34,26.179 V 80.7109 c 0,-6.8711 -0.75,-12.7617 -2.12,-17.6718 -1.41,-4.9688 -3.65,-9.0586 -6.74,-12.2774 -3.09,-3.2109 -7.16,-5.6015 -12.12,-7.1719 -5.01,-1.5312 -11.24,-2.3203 -18.66,-2.3203 -6.83,0 -12.93,0.961 -18.26,2.9493 -5.37,2.0429 -9.51,4.582 -12.4,7.75 -2.9,3.121 -4.36,6.371 -4.36,9.7226 0,2.5195 0.8,4.5586 2.49,6.1367 1.62,1.6328 3.6,2.4141 5.92,2.4141 2.91,0 5.41,-1.3438 7.63,-4.0039 1.06,-1.4063 2.17,-2.7578 3.28,-4.1289 1.13,-1.3985 2.39,-2.6094 3.76,-3.5586 1.38,-1.0195 3.06,-1.7305 4.99,-2.2227 1.89,-0.4765 4.15,-0.7187 6.67,-0.7187 5.07,0 9.1,0.7617 11.9,2.2304 2.83,1.4922 4.82,3.5704 5.97,6.2305 1.08,2.6797 1.8,5.5195 1.92,8.5781 0.24,3.1016 0.37,7.961 0.51,14.7422 -3.05,-4.4218 -6.61,-7.8086 -10.56,-10.1211 -3.98,-2.3281 -8.75,-3.4609 -14.21,-3.4609 -6.68,0 -12.46,1.7305 -17.38,5.2812 -4.97,3.5313 -8.78,8.4493 -11.43,14.8321 -2.62,6.3201 -3.98,13.6561 -3.98,21.9881 0,6.231 0.79,11.832 2.44,16.82 1.58,4.981 3.88,9.192 6.93,12.622 2.95,3.429 6.43,6.019 10.34,7.769 3.93,1.711 8.18,2.598 12.91,2.598 5.57,0 10.43,-1.137 14.53,-3.399 4.16,-2.199 7.93,-5.769 11.46,-10.531 v 2.77 c 0,3.601 0.88,6.351 2.54,8.382 1.68,1.93 3.87,2.93 6.52,2.93 3.82,0 6.35,-1.289 7.62,-3.891 1.24,-2.601 1.89,-6.371 1.89,-11.281"
         style="fill:#ffffff;fill-opacity:1;fill-rule:nonzero;stroke:none"
         id="path100" /><path
         d="m 2466.56,341.699 h 29.34 c -2.07,-15.808 -8.56,-28.148 -19.34,-37.039 -9.97,-8.699 -22.05,-13 -36.16,-13 -19.16,0 -34.45,6.738 -45.87,20.172 -10.82,12.77 -16.22,29.27 -16.22,49.418 0,20.648 5.36,37.16 16.07,49.672 10.69,12.437 25.82,18.699 45.37,18.699 14.54,0 26.84,-3.941 36.81,-11.742 10.59,-8.438 17.05,-20.289 19.34,-35.469 h -29.34 c -2.54,13.238 -10.61,19.828 -24.37,19.828 -22.68,0 -34.04,-13.429 -34.04,-40.308 0,-12.59 2.92,-22.871 8.75,-30.879 5.83,-8.039 14.06,-12.071 24.66,-12.071 15.81,0 24.15,7.59 25,22.719 z m -115.49,18.52 c 0,-26.258 8.33,-48.489 24.96,-66.598 16.65,-18.101 37.02,-27.16 61.2,-27.16 24.07,0 44.46,9.059 61.08,27.16 16.67,18.109 24.94,40.34 24.94,66.598 0,26.242 -8.27,48.441 -24.94,66.562 -16.62,18.141 -37.01,27.188 -61.08,27.188 -24.18,0 -44.55,-9.047 -61.2,-27.188 -16.63,-18.121 -24.96,-40.32 -24.96,-66.562 z m -29.8,0 c 0,33.402 11.31,61.922 33.94,85.613 22.65,23.648 50,35.477 82.02,35.477 31.94,0 59.24,-11.829 81.92,-35.477 22.65,-23.691 33.98,-52.211 33.98,-85.613 0,-33.438 -11.33,-62 -33.98,-85.637 -22.68,-23.672 -49.98,-35.512 -81.92,-35.512 -32.02,0 -59.37,11.84 -82.02,35.512 -22.63,23.637 -33.94,52.199 -33.94,85.637"
         style="fill:#ffffff;fill-opacity:1;fill-rule:nonzero;stroke:none"
         id="path102" /><path
         d="m 2368.18,284.27 16.92,-14.348 124.33,159.668 -16.9,14.332 -124.35,-159.652"
         style="fill:#ffffff;fill-opacity:1;fill-rule:nonzero;stroke:none"
         id="path104" /></g></g></svg>
