<?xml version="1.0" encoding="UTF-8" standalone="no"?>
<svg
   xmlns:dc="http://purl.org/dc/elements/1.1/"
   xmlns:cc="http://creativecommons.org/ns#"
   xmlns:rdf="http://www.w3.org/1999/02/22-rdf-syntax-ns#"
   xmlns:svg="http://www.w3.org/2000/svg"
   xmlns="http://www.w3.org/2000/svg"
   xmlns:sodipodi="http://sodipodi.sourceforge.net/DTD/sodipodi-0.dtd"
   xmlns:inkscape="http://www.inkscape.org/namespaces/inkscape"
   version="1.1"
   id="svg2"
   xml:space="preserve"
   width="666.25336"
   height="666.25336"
   viewBox="0 0 666.25336 666.25336"
   sodipodi:docname="road-sea-background-publicdomainvectors.org.eps"><metadata
     id="metadata8"><rdf:RDF><cc:Work
         rdf:about=""><dc:format>image/svg+xml</dc:format><dc:type
           rdf:resource="http://purl.org/dc/dcmitype/StillImage" /></cc:Work></rdf:RDF></metadata><defs
     id="defs6" /><sodipodi:namedview
     pagecolor="#ffffff"
     bordercolor="#666666"
     borderopacity="1"
     objecttolerance="10"
     gridtolerance="10"
     guidetolerance="10"
     inkscape:pageopacity="0"
     inkscape:pageshadow="2"
     inkscape:window-width="640"
     inkscape:window-height="480"
     id="namedview4" /><g
     id="g10"
     inkscape:groupmode="layer"
     inkscape:label="ink_ext_XXXXXX"
     transform="matrix(1.3333333,0,0,-1.3333333,0,666.25333)"><g
       id="g12"
       transform="scale(0.1)"><path
         d="M 0,0 H 4996.9 V 4996.9 H 0 V 0"
         style="fill:#c7ece1;fill-opacity:1;fill-rule:evenodd;stroke:none"
         id="path14" /><path
         d="M 4996.9,3388.29 V 1154.89 L 0,1765.77 v 1604.29 c 60.3281,71.98 141.762,124.43 233.93,149.12 122.867,32.93 253.879,13.6 362.008,-53.39 134.644,-83.44 297.789,-107.5 450.792,-66.5 153,40.99 282.25,143.41 357.15,282.98 103.77,193.38 305.45,314.05 524.92,314.05 219.47,0 421.15,-120.67 524.92,-314.05 101.96,-190.05 277.98,-329.5 486.31,-385.33 208.33,-55.82 430.48,-23.05 613.82,90.56 188.71,116.92 407.71,175.61 629.61,168.7 279.5,-8.7 554.65,-65.75 813.44,-167.91"
         style="fill:#ebf8f5;fill-opacity:1;fill-rule:evenodd;stroke:none"
         id="path16" /><path
         d="M 0,0 H 4996.9 V 2628.66 H 0 V 0"
         style="fill:#6accaa;fill-opacity:1;fill-rule:evenodd;stroke:none"
         id="path18" /><path
         d="m 1243.83,3120.08 c 187.34,0 339.19,-335.86 339.19,-750.18 0,-414.3 -151.85,-750.17 -339.19,-750.17 -187.34,0 -339.189,335.87 -339.189,750.17 0,414.32 151.849,750.18 339.189,750.18 z m 691.13,-621.63 c 66.26,0 119.98,-104.21 119.98,-232.78 0,-128.56 -53.72,-232.78 -119.98,-232.78 -66.27,0 -119.99,104.22 -119.99,232.78 0,128.57 53.72,232.78 119.99,232.78 z m 1336.27,218.79 c 130.09,0 235.54,-178.08 235.54,-397.77 0,-219.66 -105.45,-397.74 -235.54,-397.74 -51.34,0 -98.83,27.75 -137.53,74.83 -42.77,-222.2 -137.97,-376.83 -248.56,-376.83 -150.55,0 -272.63,286.68 -272.63,640.31 0,353.63 122.08,640.31 272.63,640.31 94.97,0 178.57,-114.05 227.39,-286.98 41.85,64.51 97.56,103.87 158.7,103.87 z m 1333.14,252.29 c 162.93,0 295.01,-286.68 295.01,-640.3 0,-353.64 -132.08,-640.32 -295.01,-640.32 -162.93,0 -295.02,286.68 -295.02,640.32 0,353.62 132.09,640.3 295.02,640.3 z M 595.27,2676.54 c 106.191,0 192.289,-164.15 192.289,-366.64 0,-202.49 -86.098,-366.64 -192.289,-366.64 -106.2,0 -192.297,164.15 -192.297,366.64 0,202.49 86.097,366.64 192.297,366.64 v 0"
         style="fill:#c4e341;fill-opacity:1;fill-rule:evenodd;stroke:none"
         id="path20" /><path
         d="m 1243.83,2802.69 c 187.34,0 339.19,-264.82 339.19,-591.49 0,-326.67 -151.85,-591.47 -339.19,-591.47 -187.34,0 -339.189,264.8 -339.189,591.47 0,326.67 151.849,591.49 339.189,591.49 z m 691.13,-490.13 c 66.26,0 119.98,-82.18 119.98,-183.54 0,-101.35 -53.72,-183.53 -119.98,-183.53 -66.27,0 -119.99,82.18 -119.99,183.53 0,101.36 53.72,183.54 119.99,183.54 z m 1336.27,172.5 c 130.09,0 235.54,-140.42 235.54,-313.62 0,-173.19 -105.45,-313.61 -235.54,-313.61 -51.34,0 -98.83,21.9 -137.53,59.03 -42.77,-175.22 -137.97,-297.13 -248.56,-297.13 -150.55,0 -272.63,226.02 -272.63,504.85 0,278.82 122.08,504.85 272.63,504.85 94.97,0 178.57,-89.91 227.39,-226.27 41.85,50.86 97.56,81.9 158.7,81.9 z m 1333.14,198.92 c 162.93,0 295.01,-226.03 295.01,-504.86 0,-278.83 -132.08,-504.85 -295.01,-504.85 -162.93,0 -295.02,226.02 -295.02,504.85 0,278.83 132.09,504.86 295.02,504.86 z m -4009.1,-231 c 106.191,0 192.289,-129.42 192.289,-289.09 0,-159.65 -86.098,-289.07 -192.289,-289.07 -106.2,0 -192.297,129.42 -192.297,289.07 0,159.67 86.097,289.09 192.297,289.09 v 0"
         style="fill:#b1d920;fill-opacity:1;fill-rule:evenodd;stroke:none"
         id="path22" /><path
         d="M 4996.9,2345.01 V 0 H 0 v 2184.87 l 124.34,52.05 c 358.867,150.23 763.004,150.23 1121.89,0 334.93,-140.21 712.12,-140.21 1047.08,0 410.7,171.93 873.21,171.93 1283.93,0 313.01,-131.02 665.49,-131.02 978.51,0 141.87,59.38 290.76,95.4 441.15,108.09"
         style="fill:#d8eb67;fill-opacity:1;fill-rule:evenodd;stroke:none"
         id="path24" /><path
         d="M 4996.9,2123.25 V 0 H 0 v 2150.64 c 176.27,73.26 397.996,101.86 613.23,77.76 113.942,-12.77 205.317,-61.99 235.34,-126.78 30.043,-64.78 -6.504,-133.81 -94.136,-177.8 -55.172,-27.69 -86.86,-67.84 -86.86,-110.09 0,-42.24 31.688,-82.4 86.86,-110.08 209.597,-105.2 521.226,-105.2 730.826,0 203.01,101.89 393.38,211.91 569.68,329.24 217.63,144.83 565.66,198.72 879.41,136.19 169.35,-33.75 269.88,-134.39 235.79,-236.04 -33.23,-99.06 64.74,-197.12 229.79,-230.03 183.52,-36.58 385.45,-25.36 553.57,30.73 168.11,56.1 285.88,151.56 322.84,261.72 23.96,71.42 120.59,127.27 244.16,141.11 163.24,18.28 325.94,12.52 476.4,-13.32"
         style="fill:#c4e341;fill-opacity:1;fill-rule:evenodd;stroke:none"
         id="path26" /><path
         d="M 0,0 H 4996.9 V 795.512 H 0 V 0"
         style="fill:#9ac221;fill-opacity:1;fill-rule:evenodd;stroke:none"
         id="path28" /><path
         d="M 4996.9,329.852 V 0 H 0 v 625.922 c 95.7813,10.5 196.563,16.047 299.625,16.047 380.668,0 730.505,-75.707 910.495,-197.047 176.87,-119.262 482.15,-206.762 843.49,-241.774 361.38,-35.039 746.69,-14.476 1064.7,56.801 327.32,73.371 707.18,110.199 1092.07,105.86 265.58,-2.989 528.89,-15.09 786.52,-35.957"
         style="fill:#7fa429;fill-opacity:1;fill-rule:evenodd;stroke:none"
         id="path30" /><path
         d="M 0,725.859 H 4996.9 V 1418.57 H 0 V 725.859"
         style="fill:#f9cc78;fill-opacity:1;fill-rule:evenodd;stroke:none"
         id="path32" /><path
         d="M 0,830.109 H 4996.9 V 1383.53 H 0 V 830.109"
         style="fill:#938b80;fill-opacity:1;fill-rule:evenodd;stroke:none"
         id="path34" /><path
         d="M 0,830.109 H 4996.9 V 1314.33 H 0 V 830.109"
         style="fill:#605c56;fill-opacity:1;fill-rule:evenodd;stroke:none"
         id="path36" /><path
         d="m 0,795.512 h 4996.9 v 69.199 H 0 v -69.199"
         style="fill:#413b36;fill-opacity:1;fill-rule:evenodd;stroke:none"
         id="path38" /><path
         d="m 37.707,1154.89 h 429.297 l 41.766,-48.07 H 79.4688 l -41.7618,48.07"
         style="fill:#fbc907;fill-opacity:1;fill-rule:evenodd;stroke:none"
         id="path40" /><path
         d="m 904.641,1154.89 c 143.089,0 286.189,0 429.299,0 13.91,-16.02 27.84,-32.05 41.75,-48.07 -143.09,0 -286.19,0 -429.299,0 -13.907,16.02 -27.84,32.05 -41.75,48.07"
         style="fill:#fbc907;fill-opacity:1;fill-rule:evenodd;stroke:none"
         id="path42" /><path
         d="m 1771.57,1154.89 c 143.1,0 286.19,0 429.29,0 13.93,-16.02 27.84,-32.05 41.78,-48.07 -143.11,0 -286.21,0 -429.31,0 -13.93,16.02 -27.84,32.05 -41.76,48.07"
         style="fill:#fbc907;fill-opacity:1;fill-rule:evenodd;stroke:none"
         id="path44" /><path
         d="m 2638.51,1154.89 c 143.1,0 286.18,0 429.29,0 13.92,-16.02 27.84,-32.05 41.76,-48.07 -143.1,0 -286.2,0 -429.3,0 -13.91,16.02 -27.84,32.05 -41.75,48.07"
         style="fill:#fbc907;fill-opacity:1;fill-rule:evenodd;stroke:none"
         id="path46" /><path
         d="m 3505.43,1154.89 c 143.1,0 286.2,0 429.3,0 13.92,-16.02 27.84,-32.05 41.76,-48.07 -143.1,0 -286.2,0 -429.29,0 -13.93,16.02 -27.84,32.05 -41.77,48.07"
         style="fill:#fbc907;fill-opacity:1;fill-rule:evenodd;stroke:none"
         id="path48" /><path
         d="m 4372.36,1154.89 h 429.3 l 41.77,-48.07 h -429.31 l -41.76,48.07"
         style="fill:#fbc907;fill-opacity:1;fill-rule:evenodd;stroke:none"
         id="path50" /></g></g></svg>
